<svg width="216" height="29" viewBox="0 0 216 29" fill="none" xmlns="http://www.w3.org/2000/svg">
<rect width="28.8144" height="28.8144" rx="6.82778" fill="url(#paint0_linear_174_3106)"/>
<rect x="0.0682778" y="0.0682778" width="28.6778" height="28.6778" rx="6.7595" stroke="black" stroke-opacity="0.4" stroke-width="0.136556"/>
<g filter="url(#filter0_dd_174_3106)">
<path fill-rule="evenodd" clip-rule="evenodd" d="M7.71777 9.3337C7.71777 7.18163 9.63449 5.58398 11.8069 5.58398H18.9555C19.408 5.58398 19.7748 5.95081 19.7748 6.40332C19.7748 6.85582 19.408 7.22265 18.9555 7.22265H11.8069C10.3665 7.22265 9.35644 8.25048 9.35644 9.3337V11.4954C9.35644 12.5805 10.3668 13.608 11.8069 13.608H18.9555C19.3629 13.608 19.7009 13.9055 19.7642 14.2951C19.7712 14.3382 19.7748 14.3824 19.7748 14.4275C19.7748 14.4519 19.7738 14.476 19.7717 14.4998C19.7739 14.5246 19.7751 14.5497 19.7751 14.5751V22.4515C19.7751 22.904 19.4083 23.2708 18.9558 23.2708C18.5033 23.2708 18.1364 22.904 18.1364 22.4515V15.2469H11.8069C10.3665 15.2469 9.35647 16.2747 9.35647 17.3579V19.5196C9.35647 20.6047 10.3668 21.6322 11.8069 21.6322H14.9933C15.4458 21.6322 15.8126 21.9991 15.8126 22.4516C15.8126 22.9041 15.4458 23.2709 14.9933 23.2709H11.8069C9.63421 23.2709 7.7178 21.673 7.7178 19.5196V17.3579C7.7178 16.1409 8.3308 15.1011 9.25638 14.4274C8.33075 13.7534 7.71777 12.7132 7.71777 11.4954V9.3337Z" fill="white"/>
</g>
<g filter="url(#filter1_d_174_3106)">
<path d="M18.9566 11.8356C18.1728 11.8356 17.5381 11.2001 17.5381 10.4154C17.5381 9.63062 18.1728 8.99512 18.9566 8.99512C19.7404 8.99512 20.3751 9.63062 20.3751 10.4154C20.3751 11.2001 19.7404 11.8356 18.9566 11.8356Z" fill="white"/>
</g>
<path d="M35.3816 22.4072V6.82667H42.9938C44.9525 6.82667 46.4215 7.19764 47.4009 7.93957C48.3951 8.6815 48.8922 9.66085 48.8922 10.8776C48.8922 11.6937 48.6918 12.406 48.2912 13.0144C47.8905 13.6079 47.3415 14.0679 46.6441 14.3944C45.9467 14.7208 45.1454 14.884 44.2402 14.884L44.6631 13.9715C45.6425 13.9715 46.5106 14.1347 47.2673 14.4611C48.0241 14.7728 48.6102 15.2402 49.0257 15.8634C49.456 16.4866 49.6712 17.2508 49.6712 18.156C49.6712 19.4914 49.1444 20.5376 48.0909 21.2943C47.0373 22.0363 45.4867 22.4072 43.439 22.4072H35.3816ZM38.9651 19.6918H43.1719C44.1067 19.6918 44.8115 19.5434 45.2864 19.2466C45.776 18.935 46.0209 18.4453 46.0209 17.7776C46.0209 17.1247 45.776 16.6424 45.2864 16.3308C44.8115 16.0044 44.1067 15.8411 43.1719 15.8411H38.698V13.2147H42.5486C43.4241 13.2147 44.0919 13.0663 44.5519 12.7695C45.0267 12.4579 45.2641 11.9905 45.2641 11.3673C45.2641 10.7589 45.0267 10.3063 44.5519 10.0096C44.0919 9.69794 43.4241 9.54214 42.5486 9.54214H38.9651V19.6918ZM52.1562 22.4072V10.4325H55.6285V22.4072H52.1562ZM53.8924 8.76311C53.2543 8.76311 52.735 8.57763 52.3343 8.20666C51.9337 7.8357 51.7333 7.3757 51.7333 6.82667C51.7333 6.27764 51.9337 5.81764 52.3343 5.44668C52.735 5.07571 53.2543 4.89023 53.8924 4.89023C54.5304 4.89023 55.0498 5.06829 55.4504 5.42442C55.8511 5.76571 56.0514 6.21087 56.0514 6.7599C56.0514 7.3386 55.8511 7.82086 55.4504 8.20666C55.0646 8.57763 54.5453 8.76311 53.8924 8.76311ZM63.7478 22.5853C62.3381 22.5853 61.24 22.2292 60.4536 21.5169C59.6671 20.7898 59.2739 19.714 59.2739 18.2895V7.78376H62.7462V18.245C62.7462 18.7495 62.8797 19.1427 63.1468 19.4247C63.4139 19.6918 63.7774 19.8253 64.2374 19.8253C64.7865 19.8253 65.2539 19.6769 65.6397 19.3801L66.5745 21.8285C66.2184 22.0808 65.7881 22.2737 65.2836 22.4072C64.7939 22.5259 64.282 22.5853 63.7478 22.5853ZM57.4265 13.3705V10.6996H65.7287V13.3705H57.4265ZM75.072 22.4072V6.82667H78.6778V22.4072H75.072ZM89.4089 10.2544C90.3586 10.2544 91.2044 10.4473 91.9463 10.8331C92.7031 11.2041 93.2966 11.7828 93.7269 12.5692C94.1573 13.3408 94.3724 14.335 94.3724 15.5518V22.4072H90.9002V16.086C90.9002 15.1215 90.685 14.4092 90.2547 13.9492C89.8392 13.4892 89.2457 13.2592 88.4741 13.2592C87.925 13.2592 87.4279 13.3779 86.9828 13.6153C86.5525 13.8379 86.2112 14.1866 85.9589 14.6615C85.7215 15.1363 85.6028 15.7447 85.6028 16.4866V22.4072H82.1306V10.4325H85.447V13.7489L84.8238 12.7473C85.2541 11.946 85.8699 11.3302 86.6712 10.8999C87.4725 10.4696 88.385 10.2544 89.4089 10.2544ZM102.417 22.5853C101.007 22.5853 99.9089 22.2292 99.1224 21.5169C98.336 20.7898 97.9427 19.714 97.9427 18.2895V7.78376H101.415V18.245C101.415 18.7495 101.549 19.1427 101.816 19.4247C102.083 19.6918 102.446 19.8253 102.906 19.8253C103.455 19.8253 103.923 19.6769 104.309 19.3801L105.243 21.8285C104.887 22.0808 104.457 22.2737 103.952 22.4072C103.463 22.5259 102.951 22.5853 102.417 22.5853ZM96.0953 13.3705V10.6996H104.398V13.3705H96.0953ZM112.766 22.5853C111.401 22.5853 110.199 22.3182 109.16 21.784C108.136 21.2498 107.342 20.5227 106.778 19.6027C106.215 18.6679 105.933 17.6069 105.933 16.4198C105.933 15.2179 106.207 14.157 106.756 13.237C107.32 12.3021 108.084 11.575 109.049 11.0557C110.013 10.5215 111.104 10.2544 112.321 10.2544C113.493 10.2544 114.546 10.5066 115.481 11.0112C116.431 11.5008 117.18 12.2131 117.729 13.1479C118.278 14.0679 118.553 15.1734 118.553 16.4644C118.553 16.5979 118.545 16.7537 118.531 16.9318C118.516 17.095 118.501 17.2508 118.486 17.3992H108.759V15.3737H116.661L115.325 15.9747C115.325 15.3515 115.199 14.8099 114.947 14.3499C114.695 13.8899 114.346 13.5337 113.901 13.2815C113.456 13.0144 112.936 12.8808 112.343 12.8808C111.749 12.8808 111.223 13.0144 110.763 13.2815C110.317 13.5337 109.969 13.8973 109.716 14.3721C109.464 14.8321 109.338 15.3811 109.338 16.0192V16.5534C109.338 17.2063 109.479 17.785 109.761 18.2895C110.058 18.7792 110.466 19.1576 110.985 19.4247C111.519 19.6769 112.143 19.803 112.855 19.803C113.493 19.803 114.049 19.7066 114.524 19.5137C115.014 19.3208 115.459 19.0314 115.86 18.6456L117.707 20.6488C117.158 21.2721 116.468 21.7543 115.637 22.0956C114.806 22.4221 113.849 22.5853 112.766 22.5853ZM126.496 26.9033C125.368 26.9033 124.277 26.7624 123.224 26.4804C122.185 26.2133 121.317 25.8053 120.62 25.2562L122 22.7634C122.504 23.1788 123.142 23.5053 123.914 23.7427C124.7 23.995 125.472 24.1211 126.229 24.1211C127.46 24.1211 128.351 23.8466 128.9 23.2975C129.464 22.7485 129.746 21.9324 129.746 20.8492V19.0463L129.968 16.0415L129.924 13.0144V10.4325H133.218V20.404C133.218 22.6298 132.639 24.2695 131.482 25.323C130.324 26.3766 128.662 26.9033 126.496 26.9033ZM125.962 21.8285C124.849 21.8285 123.84 21.5911 122.935 21.1163C122.044 20.6266 121.325 19.9514 120.776 19.0908C120.241 18.2153 119.974 17.1989 119.974 16.0415C119.974 14.8692 120.241 13.8528 120.776 12.9921C121.325 12.1166 122.044 11.4415 122.935 10.9666C123.84 10.4918 124.849 10.2544 125.962 10.2544C126.971 10.2544 127.861 10.4621 128.633 10.8776C129.404 11.2783 130.005 11.9089 130.436 12.7695C130.866 13.6153 131.081 14.706 131.081 16.0415C131.081 17.3621 130.866 18.4527 130.436 19.3134C130.005 20.1592 129.404 20.7898 128.633 21.2053C127.861 21.6208 126.971 21.8285 125.962 21.8285ZM126.652 18.9795C127.26 18.9795 127.802 18.8608 128.276 18.6234C128.751 18.3711 129.122 18.0224 129.389 17.5773C129.656 17.1321 129.79 16.6202 129.79 16.0415C129.79 15.4479 129.656 14.936 129.389 14.5057C129.122 14.0605 128.751 13.7192 128.276 13.4818C127.802 13.2295 127.26 13.1034 126.652 13.1034C126.043 13.1034 125.502 13.2295 125.027 13.4818C124.552 13.7192 124.174 14.0605 123.892 14.5057C123.625 14.936 123.491 15.4479 123.491 16.0415C123.491 16.6202 123.625 17.1321 123.892 17.5773C124.174 18.0224 124.552 18.3711 125.027 18.6234C125.502 18.8608 126.043 18.9795 126.652 18.9795ZM136.449 22.4072V10.4325H139.766V13.8157L139.299 12.8363C139.655 11.9905 140.226 11.3525 141.012 10.9221C141.799 10.477 142.756 10.2544 143.884 10.2544V13.4595C143.735 13.4447 143.602 13.4373 143.483 13.4373C143.364 13.4224 143.238 13.415 143.105 13.415C142.155 13.415 141.383 13.6895 140.79 14.2386C140.211 14.7728 139.922 15.6111 139.922 16.7537V22.4072H136.449ZM152.511 22.4072V20.0701L152.288 19.5582V15.3737C152.288 14.6318 152.058 14.0531 151.598 13.6376C151.153 13.2221 150.463 13.0144 149.528 13.0144C148.89 13.0144 148.26 13.1182 147.636 13.326C147.028 13.5189 146.509 13.786 146.078 14.1273L144.832 11.7012C145.485 11.2412 146.271 10.885 147.191 10.6328C148.111 10.3805 149.046 10.2544 149.996 10.2544C151.821 10.2544 153.238 10.6847 154.247 11.5454C155.256 12.406 155.761 13.7489 155.761 15.574V22.4072H152.511ZM148.861 22.5853C147.926 22.5853 147.124 22.4295 146.457 22.1179C145.789 21.7914 145.277 21.3537 144.921 20.8047C144.565 20.2556 144.387 19.6398 144.387 18.9572C144.387 18.245 144.557 17.6218 144.899 17.0876C145.255 16.5534 145.811 16.1379 146.568 15.8411C147.325 15.5295 148.312 15.3737 149.528 15.3737H152.711V17.3992H149.907C149.091 17.3992 148.527 17.5327 148.215 17.7998C147.918 18.0669 147.77 18.4008 147.77 18.8014C147.77 19.2466 147.941 19.6027 148.282 19.8698C148.638 20.1221 149.12 20.2482 149.729 20.2482C150.307 20.2482 150.827 20.1147 151.287 19.8476C151.747 19.5656 152.081 19.1576 152.288 18.6234L152.822 20.2259C152.57 20.9976 152.11 21.5837 151.442 21.9843C150.775 22.385 149.914 22.5853 148.861 22.5853ZM163.8 22.5853C162.39 22.5853 161.292 22.2292 160.506 21.5169C159.719 20.7898 159.326 19.714 159.326 18.2895V7.78376H162.798V18.245C162.798 18.7495 162.932 19.1427 163.199 19.4247C163.466 19.6918 163.829 19.8253 164.289 19.8253C164.838 19.8253 165.306 19.6769 165.692 19.3801L166.627 21.8285C166.27 22.0808 165.84 22.2737 165.336 22.4072C164.846 22.5259 164.334 22.5853 163.8 22.5853ZM157.479 13.3705V10.6996H165.781V13.3705H157.479ZM168.576 22.4072V10.4325H172.048V22.4072H168.576ZM170.312 8.76311C169.674 8.76311 169.154 8.57763 168.754 8.20666C168.353 7.8357 168.153 7.3757 168.153 6.82667C168.153 6.27764 168.353 5.81764 168.754 5.44668C169.154 5.07571 169.674 4.89023 170.312 4.89023C170.95 4.89023 171.469 5.06829 171.87 5.42442C172.271 5.76571 172.471 6.21087 172.471 6.7599C172.471 7.3386 172.271 7.82086 171.87 8.20666C171.484 8.57763 170.965 8.76311 170.312 8.76311ZM180.968 22.5853C179.692 22.5853 178.557 22.3182 177.563 21.784C176.584 21.2498 175.805 20.5227 175.226 19.6027C174.662 18.6679 174.38 17.6069 174.38 16.4198C174.38 15.2179 174.662 14.157 175.226 13.237C175.805 12.3021 176.584 11.575 177.563 11.0557C178.557 10.5215 179.692 10.2544 180.968 10.2544C182.23 10.2544 183.358 10.5215 184.352 11.0557C185.346 11.575 186.125 12.2947 186.689 13.2147C187.253 14.1347 187.535 15.2031 187.535 16.4198C187.535 17.6069 187.253 18.6679 186.689 19.6027C186.125 20.5227 185.346 21.2498 184.352 21.784C183.358 22.3182 182.23 22.5853 180.968 22.5853ZM180.968 19.7363C181.547 19.7363 182.067 19.6027 182.527 19.3356C182.987 19.0685 183.35 18.6902 183.617 18.2005C183.884 17.696 184.018 17.1024 184.018 16.4198C184.018 15.7224 183.884 15.1289 183.617 14.6392C183.35 14.1495 182.987 13.7711 182.527 13.5041C182.067 13.237 181.547 13.1034 180.968 13.1034C180.39 13.1034 179.87 13.237 179.41 13.5041C178.95 13.7711 178.579 14.1495 178.298 14.6392C178.03 15.1289 177.897 15.7224 177.897 16.4198C177.897 17.1024 178.03 17.696 178.298 18.2005C178.579 18.6902 178.95 19.0685 179.41 19.3356C179.87 19.6027 180.39 19.7363 180.968 19.7363ZM197.134 10.2544C198.084 10.2544 198.929 10.4473 199.671 10.8331C200.428 11.2041 201.022 11.7828 201.452 12.5692C201.882 13.3408 202.097 14.335 202.097 15.5518V22.4072H198.625V16.086C198.625 15.1215 198.41 14.4092 197.98 13.9492C197.564 13.4892 196.971 13.2592 196.199 13.2592C195.65 13.2592 195.153 13.3779 194.708 13.6153C194.277 13.8379 193.936 14.1866 193.684 14.6615C193.446 15.1363 193.328 15.7447 193.328 16.4866V22.4072H189.855V10.4325H193.172V13.7489L192.549 12.7473C192.979 11.946 193.595 11.3302 194.396 10.8999C195.197 10.4696 196.11 10.2544 197.134 10.2544ZM209.273 22.5853C208.25 22.5853 207.263 22.4666 206.313 22.2292C205.378 21.9769 204.636 21.6653 204.087 21.2943L205.245 18.8014C205.794 19.1427 206.439 19.4247 207.181 19.6472C207.938 19.855 208.68 19.9589 209.407 19.9589C210.208 19.9589 210.772 19.8624 211.099 19.6695C211.44 19.4766 211.611 19.2095 211.611 18.8682C211.611 18.5863 211.477 18.3785 211.21 18.245C210.958 18.0966 210.616 17.9853 210.186 17.9111C209.756 17.8369 209.281 17.7627 208.762 17.6885C208.257 17.6144 207.745 17.5179 207.226 17.3992C206.706 17.2656 206.232 17.0727 205.801 16.8205C205.371 16.5682 205.022 16.2269 204.755 15.7966C204.503 15.3663 204.377 14.8099 204.377 14.1273C204.377 13.3705 204.592 12.7028 205.022 12.1241C205.467 11.5454 206.105 11.0928 206.936 10.7663C207.767 10.425 208.762 10.2544 209.919 10.2544C210.735 10.2544 211.566 10.3434 212.412 10.5215C213.258 10.6996 213.962 10.9592 214.526 11.3005L213.369 13.7711C212.79 13.4299 212.204 13.1999 211.611 13.0812C211.032 12.9476 210.468 12.8808 209.919 12.8808C209.147 12.8808 208.583 12.9847 208.227 13.1924C207.871 13.4002 207.693 13.6673 207.693 13.9937C207.693 14.2905 207.819 14.5131 208.072 14.6615C208.339 14.8099 208.687 14.9286 209.118 15.0176C209.548 15.1066 210.015 15.1882 210.52 15.2624C211.039 15.3218 211.559 15.4182 212.078 15.5518C212.597 15.6853 213.065 15.8782 213.48 16.1305C213.911 16.3679 214.259 16.7018 214.526 17.1321C214.793 17.5476 214.927 18.0966 214.927 18.7792C214.927 19.5211 214.704 20.1814 214.259 20.7601C213.814 21.324 213.169 21.7692 212.323 22.0956C211.492 22.4221 210.475 22.5853 209.273 22.5853Z" fill="#390066"/>
<defs>
<filter id="filter0_dd_174_3106" x="4.30389" y="2.71632" width="18.8849" height="24.5148" filterUnits="userSpaceOnUse" color-interpolation-filters="sRGB">
<feFlood flood-opacity="0" result="BackgroundImageFix"/>
<feColorMatrix in="SourceAlpha" type="matrix" values="0 0 0 0 0 0 0 0 0 0 0 0 0 0 0 0 0 0 127 0" result="hardAlpha"/>
<feOffset dy="0.273111"/>
<feGaussianBlur stdDeviation="0.273111"/>
<feComposite in2="hardAlpha" operator="out"/>
<feColorMatrix type="matrix" values="0 0 0 0 0 0 0 0 0 0 0 0 0 0 0 0 0 0 0.25 0"/>
<feBlend mode="normal" in2="BackgroundImageFix" result="effect1_dropShadow_174_3106"/>
<feColorMatrix in="SourceAlpha" type="matrix" values="0 0 0 0 0 0 0 0 0 0 0 0 0 0 0 0 0 0 127 0" result="hardAlpha"/>
<feOffset dy="0.546222"/>
<feGaussianBlur stdDeviation="1.70694"/>
<feComposite in2="hardAlpha" operator="out"/>
<feColorMatrix type="matrix" values="0 0 0 0 0 0 0 0 0 0 0 0 0 0 0 0 0 0 0.15 0"/>
<feBlend mode="normal" in2="effect1_dropShadow_174_3106" result="effect2_dropShadow_174_3106"/>
<feBlend mode="normal" in="SourceGraphic" in2="effect2_dropShadow_174_3106" result="shape"/>
</filter>
<filter id="filter1_d_174_3106" x="16.9919" y="8.99512" width="3.92936" height="3.93278" filterUnits="userSpaceOnUse" color-interpolation-filters="sRGB">
<feFlood flood-opacity="0" result="BackgroundImageFix"/>
<feColorMatrix in="SourceAlpha" type="matrix" values="0 0 0 0 0 0 0 0 0 0 0 0 0 0 0 0 0 0 127 0" result="hardAlpha"/>
<feOffset dy="0.546222"/>
<feGaussianBlur stdDeviation="0.273111"/>
<feComposite in2="hardAlpha" operator="out"/>
<feColorMatrix type="matrix" values="0 0 0 0 0 0 0 0 0 0 0 0 0 0 0 0 0 0 0.25 0"/>
<feBlend mode="normal" in2="BackgroundImageFix" result="effect1_dropShadow_174_3106"/>
<feBlend mode="normal" in="SourceGraphic" in2="effect1_dropShadow_174_3106" result="shape"/>
</filter>
<linearGradient id="paint0_linear_174_3106" x1="14.4072" y1="0" x2="14.4072" y2="28.8144" gradientUnits="userSpaceOnUse">
<stop stop-color="#C377FF"/>
<stop offset="1" stop-color="#790ECC"/>
</linearGradient>
</defs>
</svg>
