<?xml version="1.0" encoding="UTF-8" standalone="no"?>
<!-- Created with Inkscape (http://www.inkscape.org/) -->

<svg
   version="1.1"
   id="svg1029"
   xml:space="preserve"
   width="682.66669"
   height="682.66669"
   viewBox="0 0 682.66669 682.66669"
   xmlns="http://www.w3.org/2000/svg"
   xmlns:svg="http://www.w3.org/2000/svg"><defs
     id="defs1033"><clipPath
       clipPathUnits="userSpaceOnUse"
       id="clipPath1043"><path
         d="M 0,512 H 512 V 0 H 0 Z"
         id="path1041" /></clipPath><clipPath
       clipPathUnits="userSpaceOnUse"
       id="clipPath1055"><path
         d="M 0,512 H 512 V 0 H 0 Z"
         id="path1053" /></clipPath></defs><g
     id="g1035"
     transform="matrix(1.3333333,0,0,-1.3333333,0,682.66667)"><g
       id="g1037"><g
         id="g1039"
         clip-path="url(#clipPath1043)"><g
           id="g1045"
           transform="translate(359.0068,-30.4858)"><path
             d="m 0,0 c -78.556,-31.974 -221.549,33.307 -218.005,-124.864 83.063,53.886 180.102,-23.158 230.167,-1.701 4.167,1.815 8.023,4.28 11.51,7.568 C 55.31,-81.665 53.495,21.798 0,0"
             style="fill:#9d9696;fill-opacity:1;fill-rule:evenodd;stroke:none"
             id="path1047" /></g></g></g><g
       id="g1049"><g
         id="g1051"
         clip-path="url(#clipPath1055)"><g
           id="g1057"
           transform="translate(432.002,440.0103)"><path
             d="M 0,0 C 16.581,0 30.021,13.435 30.021,29.98 30.021,46.555 16.581,59.99 0,59.99 -16.581,59.99 -30.02,46.555 -30.02,29.98 -30.02,13.435 -16.581,0 0,0"
             style="fill:#fe76a8;fill-opacity:1;fill-rule:evenodd;stroke:none"
             id="path1059" /></g><g
           id="g1061"
           transform="translate(155.3032,234.1616)"><path
             d="M 0,0 -34.907,53.563 C -154,146.848 -202.201,-26.433 -62.513,-9.857 Z"
             style="fill:#fe76a8;fill-opacity:1;fill-rule:evenodd;stroke:none"
             id="path1063" /></g><g
           id="g1065"
           transform="translate(206.5298,287.6958)"><path
             d="m 0,0 c 87.53,110.034 -85.232,160.166 -68.477,9.858 l 29.119,-50.161 z"
             style="fill:#fe76a8;fill-opacity:1;fill-rule:evenodd;stroke:none"
             id="path1067" /></g><g
           id="g1069"
           transform="translate(108.8184,233.2603)"><path
             d="m 0,0 48.987,9.305 31.794,35.709 -10.21,18.291 c -1.92,3.46 -4.683,6.135 -7.883,7.967 -6.167,3.519 -14.021,3.839 -20.654,0.145 L 29.235,64.293 11.578,54.465 -2.094,46.817 C -8.436,43.298 -12.217,36.93 -12.77,30.184 -13.119,26.2 -12.305,22.071 -10.21,18.32 Z"
             style="fill:#fece85;fill-opacity:1;fill-rule:evenodd;stroke:none"
             id="path1071" /></g><g
           id="g1073"
           transform="translate(219.1255,225.3218)"><path
             d="m 0,0 85.698,47.748 c 7.068,3.954 9.628,12.94 5.701,20.005 L 76.185,95.03 c -3.956,7.066 -12.944,9.625 -20.013,5.67 L -12.596,62.374 -29.526,52.953 V 17.244 Z"
             style="fill:#01d0fb;fill-opacity:1;fill-rule:evenodd;stroke:none"
             id="path1075" /></g><g
           id="g1077"
           transform="translate(221.54,12)"><path
             d="M 0,0 21.555,97.646 0,190.117 h -44.042 l -53.902,4.653 -10.792,-40.71 V 19.134 C -108.736,8.607 -100.126,0 -89.596,0 Z"
             style="fill:#99e6fc;fill-opacity:1;fill-rule:evenodd;stroke:none"
             id="path1079" /></g><g
           id="g1081"
           transform="translate(52.647,132.5317)"><path
             d="m 0,0 85.697,47.776 2.444,35.709 -31.97,17.244 -16.028,-8.957 -69.698,-38.82 c -7.04,-3.926 -9.6,-12.911 -5.673,-19.977 L -20.014,5.67 C -16.086,-1.367 -7.069,-3.926 0,0"
             style="fill:#01d0fb;fill-opacity:1;fill-rule:evenodd;stroke:none"
             id="path1083" /></g><g
           id="g1085"
           transform="translate(401.8945,31.1338)"><path
             d="m 0,0 v 124.515 35.767 c 0,5.874 -4.829,10.701 -10.705,10.701 h -98.031 l -25.628,-95.087 25.628,-95.03 h 89.595 C -8.61,-19.134 0,-10.526 0,0"
             style="fill:#99e6fc;fill-opacity:1;fill-rule:evenodd;stroke:none"
             id="path1087" /></g><g
           id="g1089"
           transform="translate(206.5298,287.6958)"><path
             d="m 0,0 c 60.07,75.518 -2.473,122.829 -42.18,96.483 32.726,-1.832 61.059,-41.03 20.479,-97.384 l 4.771,-8.52 z"
             style="fill:#fe5694;fill-opacity:1;fill-rule:evenodd;stroke:none"
             id="path1091" /></g><g
           id="g1093"
           transform="translate(120.396,287.7251)"><path
             d="m 0,0 c -67.953,53.214 -112.809,19.686 -112.896,-15.877 14.138,20.471 47.125,30.212 91.835,1.308 1.804,2.792 4.276,5.206 7.389,6.921 z"
             style="fill:#fe5694;fill-opacity:1;fill-rule:evenodd;stroke:none"
             id="path1095" /></g><g
           id="g1097"
           transform="translate(184.8291,286.7944)"><path
             d="m 0,0 -5.439,9.771 c -1.92,3.46 -4.684,6.135 -7.884,7.967 -6.167,3.518 -14.021,3.839 -20.654,0.145 L -46.776,10.759 -58.935,3.984 c 6.632,3.693 14.457,3.373 20.653,-0.146 3.2,-1.832 5.964,-4.536 7.884,-7.967 l 10.21,-18.32 24.959,13.929 z"
             style="fill:#fdb440;fill-opacity:1;fill-rule:evenodd;stroke:none"
             id="path1099" /></g><g
           id="g1101"
           transform="translate(304.8232,273.0693)"><path
             d="M 0,0 C 7.068,3.955 9.628,12.94 5.701,20.006 L -9.513,47.282 c -3.956,7.066 -12.944,9.625 -20.013,5.67 L -63.91,33.79 c 7.069,3.954 16.057,1.395 19.985,-5.671 L -28.711,0.843 c 3.927,-7.066 1.396,-16.022 -5.615,-19.977 z"
             style="fill:#00b1cd;fill-opacity:1;fill-rule:evenodd;stroke:none"
             id="path1103" /></g><g
           id="g1105"
           transform="translate(219.1255,225.3218)"><path
             d="M 0,0 -29.526,52.953 -110.307,7.938 -80.781,-45.014 C -53.815,-29.98 -26.966,-15.034 0,0"
             style="fill:#fe5694;fill-opacity:1;fill-rule:evenodd;stroke:none"
             id="path1107" /></g><path
           d="M 293.158,202.117 H 221.54 V 12 h 71.618 z"
           style="fill:#fe76a8;fill-opacity:1;fill-rule:evenodd;stroke:none"
           id="path1109" /><g
           id="g1111"
           transform="translate(401.8945,155.6489)"><path
             d="m 0,0 v 35.767 c 0,5.874 -4.829,10.701 -10.705,10.701 h -43.198 c 5.876,0 10.705,-4.827 10.705,-10.701 V 0 -124.515 c 0,-10.527 -8.639,-19.134 -19.17,-19.134 h 43.227 c 10.531,0 19.141,8.607 19.141,19.134 z"
             style="fill:#2ed1e2;fill-opacity:1;fill-rule:evenodd;stroke:none"
             id="path1113" /></g><g
           id="g1115"
           transform="translate(221.54,128.1987)"><path
             d="m 0,0 v 73.918 m 0,-190.117 v 80.665 M 71.618,73.918 v -190.117"
             style="fill:none;stroke:#000000;stroke-width:15;stroke-linecap:round;stroke-linejoin:round;stroke-miterlimit:10;stroke-dasharray:none;stroke-opacity:1"
             id="path1117" /></g><g
           id="g1119"
           transform="translate(52.647,132.5317)"><path
             d="m 0,0 252.176,140.538 c 7.069,3.954 9.629,12.94 5.701,20.005 l -15.213,27.277 c -3.956,7.066 -12.945,9.625 -20.014,5.67 L -29.555,52.952 c -7.04,-3.926 -9.6,-12.911 -5.673,-19.977 L -20.014,5.67 C -16.086,-1.367 -7.069,-3.926 0,0 Z"
             style="fill:none;stroke:#000000;stroke-width:15;stroke-linecap:round;stroke-linejoin:round;stroke-miterlimit:10;stroke-dasharray:none;stroke-opacity:1"
             id="path1121" /></g><g
           id="g1123"
           transform="translate(189.5996,278.2744)"><path
             d="m 0,0 29.526,-52.953 m -80.781,-45.013 -29.526,52.952"
             style="fill:none;stroke:#000000;stroke-width:15;stroke-linecap:round;stroke-linejoin:round;stroke-miterlimit:10;stroke-dasharray:none;stroke-opacity:1"
             id="path1125" /></g><g
           id="g1127"
           transform="translate(92.79,224.3042)"><path
             d="M 0,0 C -139.687,-16.575 -91.486,156.706 27.606,63.421"
             style="fill:none;stroke:#000000;stroke-width:15;stroke-linecap:round;stroke-linejoin:round;stroke-miterlimit:10;stroke-dasharray:none;stroke-opacity:1"
             id="path1129" /></g><g
           id="g1131"
           transform="translate(177.0332,202.1172)"><path
             d="m 0,0 h 214.156 c 5.876,0 10.705,-4.827 10.705,-10.701 v -35.767 -124.515 c 0,-10.527 -8.61,-19.134 -19.141,-19.134 H -45.089 c -10.53,0 -19.14,8.607 -19.14,19.134 v 134.925"
             style="fill:none;stroke:#000000;stroke-width:15;stroke-linecap:round;stroke-linejoin:round;stroke-miterlimit:10;stroke-dasharray:none;stroke-opacity:1"
             id="path1133" /></g><g
           id="g1135"
           transform="translate(108.8184,233.2603)"><path
             d="M 0,0 80.781,45.014 70.571,63.305 C 64.957,73.395 52.099,77.03 42.034,71.417 L -2.094,46.817 C -12.188,41.205 -15.825,28.381 -10.21,18.32 Z"
             style="fill:none;stroke:#000000;stroke-width:15;stroke-linecap:round;stroke-linejoin:round;stroke-miterlimit:10;stroke-dasharray:none;stroke-opacity:1"
             id="path1137" /></g><g
           id="g1139"
           transform="translate(96.0483,263.4443)"><path
             d="M 0,0 C -12.072,4.391 -21.352,6.688 -37.555,8.462"
             style="fill:none;stroke:#000000;stroke-width:15;stroke-linecap:round;stroke-linejoin:round;stroke-miterlimit:10;stroke-dasharray:none;stroke-opacity:1"
             id="path1141" /></g><g
           id="g1143"
           transform="translate(148.002,366.354)"><path
             d="m 0,0 c -8.785,-15.179 -13.41,-37.715 -9.949,-68.8 m 68.477,-9.858 C 115.456,-7.095 62.28,39.14 22.748,21.373"
             style="fill:none;stroke:#000000;stroke-width:15;stroke-linecap:round;stroke-linejoin:round;stroke-miterlimit:10;stroke-dasharray:none;stroke-opacity:1"
             id="path1145" /></g><g
           id="g1147"
           transform="translate(171.5063,304.5322)"><path
             d="M 0,0 C 0.843,10.643 6.021,26.666 12.538,37.367"
             style="fill:none;stroke:#000000;stroke-width:15;stroke-linecap:round;stroke-linejoin:round;stroke-miterlimit:10;stroke-dasharray:none;stroke-opacity:1"
             id="path1149" /></g><g
           id="g1151"
           transform="translate(371.147,378.4507)"><path
             d="M 0,0 C 0,0 10.356,-95.611 -24.435,-133.326"
             style="fill:none;stroke:#000000;stroke-width:15;stroke-linecap:round;stroke-linejoin:round;stroke-miterlimit:10;stroke-dasharray:none;stroke-opacity:1"
             id="path1153" /></g><g
           id="g1155"
           transform="translate(422.7227,349.6338)"><path
             d="M 0,0 C 0,0 15.01,66.125 81.77,82.06"
             style="fill:none;stroke:#000000;stroke-width:15;stroke-linecap:round;stroke-linejoin:round;stroke-miterlimit:10;stroke-dasharray:none;stroke-opacity:1"
             id="path1157" /></g><g
           id="g1159"
           transform="translate(341.0684,434.6602)"><path
             d="m 0,0 14.719,17.738 c 3.026,3.431 2.822,4.449 -1.629,5.554 l -22.864,5.67 c -2.589,0.64 -2.734,1.338 -4.014,3.432 l -11.549,19.279 c -2.327,3.926 -3.752,3.926 -6.109,0 L -42.994,32.394 c -1.251,-2.094 -1.425,-2.792 -4.014,-3.432 l -22.865,-5.67 c -4.421,-1.105 -4.654,-2.123 -1.629,-5.554 L -56.753,0 c 1.57,-1.89 1.803,-4.1 1.6,-6.775 l -1.775,-21.926 c -0.494,-4.536 0.466,-5.089 4.713,-3.373 l 20.1,8.375 c 2.095,0.872 5.382,0.872 7.447,0 l 20.13,-8.375 c 4.247,-1.716 5.178,-1.163 4.684,3.373 L -1.6,-6.775 C -1.803,-4.1 -1.6,-1.89 0,0"
             style="fill:#fece85;fill-opacity:1;fill-rule:evenodd;stroke:none"
             id="path1161" /></g><g
           id="g1163"
           transform="translate(313.521,452.9507)"><path
             d="m 0,0 c -2.997,-19.192 -9.367,-35.913 -17.076,-47.195 l 12.509,5.205 c 2.094,0.872 5.381,0.872 7.446,0 l 20.13,-8.375 c 4.247,-1.715 5.178,-1.163 4.684,3.374 l -1.745,21.925 c -0.204,2.675 0,4.885 1.599,6.775 l 14.72,17.738 c 3.025,3.432 2.821,4.449 -1.629,5.554 l -22.865,5.671 c -2.588,0.64 -2.734,1.337 -4.014,3.431 L 2.21,33.382 C 1.833,34.022 1.483,34.545 1.164,34.953 2.269,24.513 1.978,12.533 0,0"
             style="fill:#fdb440;fill-opacity:1;fill-rule:evenodd;stroke:none"
             id="path1165" /></g><g
           id="g1167"
           transform="translate(309.6226,486.333)"><path
             d="m 0,0 -11.548,-19.279 c -1.251,-2.094 -1.426,-2.792 -4.015,-3.431 l -22.864,-5.671 c -4.422,-1.105 -4.654,-2.122 -1.629,-5.554 l 14.748,-17.738 c 1.571,-1.89 1.804,-4.1 1.6,-6.775 l -1.774,-21.926 c -0.495,-4.536 0.465,-5.088 4.712,-3.373 l 20.101,8.375 c 2.095,0.872 5.382,0.872 7.447,0 l 20.13,-8.375 c 4.247,-1.715 5.178,-1.163 4.683,3.373 l -1.745,21.926 c -0.203,2.675 0,4.885 1.6,6.775 l 14.719,17.738 c 3.025,3.432 2.822,4.449 -1.629,5.554 l -22.864,5.671 c -2.589,0.639 -2.735,1.337 -4.014,3.431 L 6.109,0 C 3.782,3.926 2.356,3.926 0,0 Z"
             style="fill:none;stroke:#000000;stroke-width:15;stroke-linecap:round;stroke-linejoin:round;stroke-miterlimit:10;stroke-dasharray:none;stroke-opacity:1"
             id="path1169" /></g><g
           id="g1171"
           transform="translate(487.7373,262.252)"><path
             d="m 0,0 14.719,17.738 c 3.054,3.431 2.822,4.449 -1.629,5.554 l -22.864,5.67 c -2.56,0.64 -2.734,1.338 -3.985,3.432 l -11.549,19.279 c -2.356,3.926 -3.781,3.926 -6.109,0 L -42.994,32.394 c -1.251,-2.094 -1.425,-2.792 -3.985,-3.432 l -22.865,-5.67 c -4.45,-1.105 -4.683,-2.123 -1.629,-5.554 L -56.753,0 c 1.6,-1.89 1.803,-4.1 1.6,-6.775 l -1.775,-21.897 c -0.466,-4.565 0.466,-5.118 4.713,-3.402 l 20.1,8.375 c 2.094,0.872 5.382,0.872 7.476,0 l 20.101,-8.375 c 4.247,-1.716 5.178,-1.163 4.712,3.402 L -1.6,-6.775 C -1.804,-4.1 -1.6,-1.89 0,0"
             style="fill:#fece85;fill-opacity:1;fill-rule:evenodd;stroke:none"
             id="path1173" /></g><g
           id="g1175"
           transform="translate(460.2187,280.5425)"><path
             d="m 0,0 c -3.025,-19.192 -9.367,-35.912 -17.104,-47.195 l 12.508,5.205 c 2.094,0.873 5.381,0.873 7.476,0 l 20.1,-8.374 c 4.248,-1.716 5.179,-1.163 4.713,3.402 l -1.775,21.896 c -0.203,2.675 0,4.885 1.601,6.775 l 14.719,17.739 c 3.054,3.431 2.822,4.448 -1.629,5.553 l -22.864,5.671 c -2.56,0.64 -2.735,1.338 -3.986,3.431 L 2.211,33.382 c -0.378,0.64 -0.728,1.163 -1.077,1.6 C 2.269,24.514 1.949,12.533 0,0"
             style="fill:#fdb440;fill-opacity:1;fill-rule:evenodd;stroke:none"
             id="path1177" /></g><g
           id="g1179"
           transform="translate(456.3208,313.9248)"><path
             d="m 0,0 -11.578,-19.279 c -1.251,-2.094 -1.425,-2.792 -3.985,-3.431 l -22.864,-5.671 c -4.451,-1.105 -4.683,-2.122 -1.629,-5.554 l 14.719,-17.738 c 1.6,-1.89 1.804,-4.1 1.6,-6.775 l -1.774,-21.897 c -0.466,-4.565 0.465,-5.117 4.712,-3.402 l 20.101,8.375 c 2.094,0.872 5.381,0.872 7.476,0 l 20.1,-8.375 c 4.247,-1.715 5.179,-1.163 4.713,3.402 l -1.775,21.897 c -0.203,2.675 0,4.885 1.601,6.775 l 14.719,17.738 c 3.054,3.432 2.822,4.449 -1.629,5.554 l -22.864,5.671 c -2.56,0.639 -2.735,1.337 -3.986,3.431 L 6.109,0 C 3.752,3.926 2.327,3.926 0,0 Z"
             style="fill:none;stroke:#000000;stroke-width:15;stroke-linecap:round;stroke-linejoin:round;stroke-miterlimit:10;stroke-dasharray:none;stroke-opacity:1"
             id="path1181" /></g><g
           id="g1183"
           transform="translate(462.0225,469.9907)"><path
             d="m 0,0 c 0,16.575 -13.439,30.009 -30.021,30.009 -5.468,0 -10.588,-1.454 -15.01,-4.012 8.989,-5.177 15.01,-14.889 15.01,-25.997 0,-11.079 -6.021,-20.792 -15.01,-25.967 4.422,-2.559 9.542,-4.013 15.01,-4.013 C -13.439,-29.98 0,-16.546 0,0"
             style="fill:#fe5694;fill-opacity:1;fill-rule:evenodd;stroke:none"
             id="path1185" /></g><g
           id="g1187"
           transform="translate(432.002,440.0103)"><path
             d="M 0,0 C 16.552,0 30.021,13.464 30.021,29.98 30.021,46.526 16.552,59.99 0,59.99 -16.523,59.99 -30.02,46.526 -30.02,29.98 -30.02,13.464 -16.523,0 0,0 Z"
             style="fill:none;stroke:#000000;stroke-width:15;stroke-linecap:round;stroke-linejoin:round;stroke-miterlimit:10;stroke-dasharray:none;stroke-opacity:1"
             id="path1189" /></g></g></g></g></svg>
